<svg width="1416" height="671" viewBox="0 0 1416 671" fill="none" xmlns="http://www.w3.org/2000/svg">
<mask id="path-1-outside-1_187_122" maskUnits="userSpaceOnUse" x="0.0683594" y="0" width="1416" height="671" fill="black">
<rect fill="white" x="0.0683594" width="1416" height="671"/>
<path fill-rule="evenodd" clip-rule="evenodd" d="M17.0684 473.341V638.398H168.86V473.341H17.0684ZM17.0684 311.614H174.166C184.038 276.347 207.323 260.816 240.962 260.816C270.126 260.816 291.824 274.15 300.856 311.614H457.265V310.148C457.265 199.15 398.446 137.485 313.063 137.485C235.269 137.485 194.475 178.279 170.758 222.868H168.86V152.664H17.0684V311.614ZM457.265 473.341H305.473V638.398H457.265V473.341ZM494.277 473.341H647.996C658.508 520.472 680.204 540.682 709.249 540.682C736.314 540.682 758.785 520.472 769.952 473.341H923.448C899.327 588.106 820.598 654.526 706.403 654.526C593.702 654.526 517.011 589.055 494.277 473.341ZM922.827 311.614C898.077 199.902 820.295 136.536 710.197 136.536C597.103 136.536 520.819 200.798 496.018 311.614H649.459C660.445 268.839 681.491 250.38 709.249 250.38C735.114 250.38 756.785 268.839 768.402 311.614H922.827ZM1067.49 473.341C1067.84 611.225 1106.1 647.886 1250.59 647.886C1316.05 647.886 1363.48 640.296 1399.53 629.86V522.657C1347.35 531.195 1325.53 534.041 1285.69 534.041C1241.77 534.041 1221.56 529.808 1219.46 473.341H1067.49ZM1219.28 311.614H1067.49V266.508H934.669V152.664H1067.49V17H1219.28V152.664H1399.53V266.508H1219.28V311.614Z"/>
</mask>
<path fill-rule="evenodd" clip-rule="evenodd" d="M17.0684 473.341V638.398H168.86V473.341H17.0684ZM17.0684 311.614H174.166C184.038 276.347 207.323 260.816 240.962 260.816C270.126 260.816 291.824 274.15 300.856 311.614H457.265V310.148C457.265 199.15 398.446 137.485 313.063 137.485C235.269 137.485 194.475 178.279 170.758 222.868H168.86V152.664H17.0684V311.614ZM457.265 473.341H305.473V638.398H457.265V473.341ZM494.277 473.341H647.996C658.508 520.472 680.204 540.682 709.249 540.682C736.314 540.682 758.785 520.472 769.952 473.341H923.448C899.327 588.106 820.598 654.526 706.403 654.526C593.702 654.526 517.011 589.055 494.277 473.341ZM922.827 311.614C898.077 199.902 820.295 136.536 710.197 136.536C597.103 136.536 520.819 200.798 496.018 311.614H649.459C660.445 268.839 681.491 250.38 709.249 250.38C735.114 250.38 756.785 268.839 768.402 311.614H922.827ZM1067.49 473.341C1067.84 611.225 1106.1 647.886 1250.59 647.886C1316.05 647.886 1363.48 640.296 1399.53 629.86V522.657C1347.35 531.195 1325.53 534.041 1285.69 534.041C1241.77 534.041 1221.56 529.808 1219.46 473.341H1067.49ZM1219.28 311.614H1067.49V266.508H934.669V152.664H1067.49V17H1219.28V152.664H1399.53V266.508H1219.28V311.614Z" fill="black"/>
<path d="M17.0684 638.398H0.774765V654.692H17.0684V638.398ZM17.0684 473.341V457.047H0.774765V473.341H17.0684ZM168.86 638.398V654.692H185.154V638.398H168.86ZM168.86 473.341H185.154V457.047H168.86V473.341ZM17.0684 311.614H0.774765V327.908H17.0684V311.614ZM174.166 311.614V327.908H186.525L189.856 316.006L174.166 311.614ZM300.856 311.614L285.016 315.433L288.023 327.908H300.856V311.614ZM457.265 311.614V327.908H473.559V311.614H457.265ZM170.758 222.868V239.161H180.546L185.143 230.52L170.758 222.868ZM168.86 222.868H152.567V239.161H168.86V222.868ZM168.86 152.664H185.154V136.37H168.86V152.664ZM17.0684 152.664V136.37H0.774765V152.664H17.0684ZM457.265 473.341H473.559V457.047H457.265V473.341ZM305.473 473.341V457.047H289.18V473.341H305.473ZM305.473 638.398H289.18V654.692H305.473V638.398ZM457.265 638.398V654.692H473.559V638.398H457.265ZM647.996 473.341L663.899 469.794L661.056 457.047H647.996V473.341ZM494.277 473.341V457.047H474.471L478.289 476.482L494.277 473.341ZM769.952 473.341V457.047H757.068L754.097 469.584L769.952 473.341ZM923.448 473.341L939.394 476.692L943.523 457.047H923.448V473.341ZM922.827 311.614V327.908H943.126L938.735 308.09L922.827 311.614ZM496.018 311.614L480.118 308.056L475.675 327.908H496.018V311.614ZM649.459 311.614V327.908H662.096L665.24 315.668L649.459 311.614ZM768.402 311.614L752.678 315.885L755.943 327.908H768.402V311.614ZM1067.49 473.341V457.047H1051.15L1051.2 473.382L1067.49 473.341ZM1399.53 629.86L1404.06 645.511L1415.83 642.106V629.86H1399.53ZM1399.53 522.657H1415.83V503.481L1396.9 506.577L1399.53 522.657ZM1219.46 473.341L1235.74 472.736L1235.16 457.047H1219.46V473.341ZM1067.49 311.614H1051.19V327.908H1067.49V311.614ZM1219.28 311.614V327.908H1235.57V311.614H1219.28ZM1067.49 266.508H1083.78V250.215H1067.49V266.508ZM934.669 266.508H918.375V282.802H934.669V266.508ZM934.669 152.664V136.37H918.375V152.664H934.669ZM1067.49 152.664V168.958H1083.78V152.664H1067.49ZM1067.49 17V0.706406H1051.19V17H1067.49ZM1219.28 17H1235.57V0.706406H1219.28V17ZM1219.28 152.664H1202.99V168.958H1219.28V152.664ZM1399.53 152.664H1415.83V136.37H1399.53V152.664ZM1399.53 266.508V282.802H1415.83V266.508H1399.53ZM1219.28 266.508V250.215H1202.99V266.508H1219.28ZM33.362 638.398V473.341H0.774765V638.398H33.362ZM168.86 622.105H17.0684V654.692H168.86V622.105ZM152.567 473.341V638.398H185.154V473.341H152.567ZM168.86 457.047H17.0684V489.635H168.86V457.047ZM17.0684 327.908H174.166V295.321H17.0684V327.908ZM240.962 244.522C221.653 244.522 203.752 249 188.99 259.869C174.168 270.783 164.155 286.931 158.475 307.222L189.856 316.006C194.049 301.03 200.614 291.779 208.312 286.11C216.071 280.397 226.632 277.109 240.962 277.109V244.522ZM316.695 307.796C311.594 286.635 302.404 270.263 288.527 259.356C274.641 248.441 258.001 244.522 240.962 244.522V277.109C253.087 277.109 261.878 279.858 268.389 284.976C274.91 290.102 281.085 299.129 285.016 315.433L316.695 307.796ZM300.856 327.908H457.265V295.321H300.856V327.908ZM440.972 310.148V311.614H473.559V310.148H440.972ZM313.063 153.779C351.597 153.779 382.939 167.551 404.868 192.862C427.01 218.417 440.972 257.408 440.972 310.148H473.559C473.559 251.891 458.111 204.55 429.497 171.523C400.671 138.251 359.912 121.191 313.063 121.191V153.779ZM185.143 230.52C196.176 209.778 210.747 190.744 230.877 176.872C250.836 163.118 277.204 153.779 313.063 153.779V121.191C271.128 121.191 238.202 132.249 212.386 150.039C186.741 167.711 169.057 191.369 156.373 215.216L185.143 230.52ZM168.86 239.161H170.758V206.574H168.86V239.161ZM152.567 152.664V222.868H185.154V152.664H152.567ZM17.0684 168.958H168.86V136.37H17.0684V168.958ZM33.362 311.614V152.664H0.774765V311.614H33.362ZM457.265 457.047H305.473V489.635H457.265V457.047ZM321.767 638.398V473.341H289.18V638.398H321.767ZM457.265 622.105H305.473V654.692H457.265V622.105ZM440.972 473.341V638.398H473.559V473.341H440.972ZM647.996 457.047H494.277V489.635H647.996V457.047ZM632.093 476.888C637.703 502.041 646.703 522.022 659.844 535.892C673.444 550.247 690.482 556.976 709.249 556.976V524.389C698.971 524.389 690.637 521.013 683.5 513.48C675.904 505.462 668.8 491.772 663.899 469.794L632.093 476.888ZM709.249 556.976C727.306 556.976 743.942 550.048 757.375 535.908C770.43 522.166 779.829 502.326 785.807 477.097L754.097 469.584C748.908 491.487 741.488 505.318 733.749 513.464C726.388 521.212 718.257 524.389 709.249 524.389V556.976ZM923.448 457.047H769.952V489.635H923.448V457.047ZM907.503 469.99C896.052 524.473 871.926 566.281 838.244 594.477C804.611 622.633 760.241 638.233 706.403 638.233V670.82C766.76 670.82 818.852 653.209 859.162 619.464C899.425 585.759 926.723 536.974 939.394 476.692L907.503 469.99ZM706.403 638.233C653.309 638.233 609.895 622.872 577.184 594.936C544.413 566.949 521.073 525.214 510.265 470.2L478.289 476.482C490.214 537.182 516.587 586.039 556.021 619.716C595.514 653.445 646.795 670.82 706.403 670.82V638.233ZM710.197 152.83C762.031 152.83 805.193 167.693 838.178 194.776C871.195 221.884 895.192 262.206 906.92 315.139L938.735 308.09C925.712 249.31 898.443 202.093 858.857 169.59C819.239 137.062 768.462 120.243 710.197 120.243V152.83ZM511.918 315.173C523.682 262.609 547.353 222.291 580.359 195.094C613.318 167.936 656.832 152.83 710.197 152.83V120.243C650.469 120.243 599.293 137.268 559.636 169.945C520.027 202.582 493.155 249.804 480.118 308.056L511.918 315.173ZM496.018 327.908H649.459V295.321H496.018V327.908ZM709.249 234.087C691.363 234.087 674.969 240.199 661.625 253.353C648.682 266.113 639.599 284.504 633.677 307.561L665.24 315.668C670.304 295.949 677.237 283.723 684.503 276.56C691.369 269.791 699.376 266.674 709.249 266.674V234.087ZM784.126 307.344C777.85 284.237 768.424 265.991 755.608 253.354C742.456 240.386 726.462 234.087 709.249 234.087V266.674C717.901 266.674 725.675 269.604 732.728 276.559C740.119 283.845 747.336 296.216 752.678 315.885L784.126 307.344ZM768.402 327.908H922.827V295.321H768.402V327.908ZM1250.59 631.592C1178.34 631.592 1138.8 622.066 1116.23 600.531C1093.91 579.234 1083.96 542.049 1083.78 473.3L1051.2 473.382C1051.37 542.517 1060.72 592.604 1093.74 624.108C1126.51 655.374 1178.35 664.179 1250.59 664.179V631.592ZM1395 614.209C1360.65 624.153 1314.77 631.592 1250.59 631.592V664.179C1317.32 664.179 1366.31 656.439 1404.06 645.511L1395 614.209ZM1383.24 522.657V629.86H1415.83V522.657H1383.24ZM1285.69 550.335C1326.85 550.335 1349.69 547.323 1402.16 538.737L1396.9 506.577C1345.02 515.068 1324.21 517.748 1285.69 517.748V550.335ZM1203.18 473.946C1204.26 502.938 1209.96 525.01 1227.11 537.893C1235.4 544.125 1244.98 547.078 1254.57 548.592C1264.04 550.088 1274.66 550.335 1285.69 550.335V517.748C1274.76 517.748 1266.38 517.466 1259.65 516.403C1253.03 515.359 1249.19 513.724 1246.68 511.839C1242.22 508.489 1236.77 500.211 1235.74 472.736L1203.18 473.946ZM1219.46 457.047H1067.49V489.635H1219.46V457.047ZM1067.49 327.908H1219.28V295.321H1067.49V327.908ZM1083.78 311.614V266.508H1051.19V311.614H1083.78ZM1067.49 250.215H934.669V282.802H1067.49V250.215ZM950.962 266.508V152.664H918.375V266.508H950.962ZM934.669 168.958H1067.49V136.37H934.669V168.958ZM1083.78 152.664V17H1051.19V152.664H1083.78ZM1067.49 33.2936H1219.28V0.706406H1067.49V33.2936ZM1202.99 17V152.664H1235.57V17H1202.99ZM1219.28 168.958H1399.53V136.37H1219.28V168.958ZM1383.24 152.664V266.508H1415.83V152.664H1383.24ZM1399.53 250.215H1219.28V282.802H1399.53V250.215ZM1202.99 266.508V311.614H1235.57V266.508H1202.99Z" fill="black" mask="url(#path-1-outside-1_187_122)"/>
</svg>
